<?xml version="1.0" encoding="iso-8859-1"?>
<!-- Generator: Adobe Illustrator 19.0.0, SVG Export Plug-In . SVG Version: 6.00 Build 0)  -->
<svg version="1.1" id="Capa_1" xmlns="http://www.w3.org/2000/svg" xmlns:xlink="http://www.w3.org/1999/xlink" x="0px" y="0px"
	 viewBox="0 0 512.001 512.001" style="enable-background:new 0 0 512.001 512.001;" xml:space="preserve">
<g>
	<g>
		<path d="M491.679,171.904h-30.432c-2.176,0-4.269,0.352-6.236,0.989v-38.435c0-23.179-18.858-42.037-42.037-42.037H163.806
			c-4.199,0-7.604,3.404-7.604,7.604s3.405,7.604,7.604,7.604h249.169c14.793,0,26.829,12.036,26.829,26.829v107.458H327.13
			l23.983-23.983c2.97-2.971,2.97-7.784,0-10.754c-2.97-2.969-7.784-2.969-10.753,0l-34.738,34.738h-42.629v-13.812
			c0-4.2-3.405-7.604-7.604-7.604c-4.199,0-7.604,3.404-7.604,7.604v13.812H203.92l-34.738-34.738c-2.97-2.969-7.784-2.969-10.753,0
			c-2.97,2.971-2.97,7.784,0,10.754l23.983,23.983h-34.493c-4.199,0-7.604,3.404-7.604,7.604c0,4.2,3.405,7.604,7.604,7.604h295.866
			c2.473,0,4.562,2.09,4.562,4.562v29.113c0,2.473-2.09,4.562-4.562,4.562H66.467c-2.473,0-4.562-2.09-4.562-4.562v-29.113
			c0-2.473,2.09-4.562,4.562-4.562h32.559c4.199,0,7.604-3.404,7.604-7.604c0-4.2-3.405-7.604-7.604-7.604H72.197V134.457
			c0-14.793,12.036-26.829,26.829-26.829c4.199,0,7.604-3.404,7.604-7.604c0-4.2-3.405-7.604-7.604-7.604
			c-23.179,0-42.037,18.858-42.037,42.037v38.434c-1.967-0.636-4.06-0.989-6.236-0.989H20.321C9.116,171.904,0,181.02,0,192.225
			V383.36c0,4.2,3.405,7.604,7.604,7.604h15.145v21.01c0,4.2,3.405,7.604,7.604,7.604h66.236c4.199,0,7.604-3.404,7.604-7.604
			v-21.01H406.69v21.013c0,4.2,3.405,7.604,7.604,7.604h66.236c4.199,0,7.604-3.404,7.604-7.604v-21.013h16.263
			c4.199,0,7.604-3.404,7.604-7.604V192.225C512,181.02,502.884,171.904,491.679,171.904z M15.208,375.757L15.208,375.757V192.225
			c0-2.771,2.342-5.113,5.113-5.113h30.432c2.772,0,5.113,2.342,5.113,5.113v52.801c-5.503,3.514-9.169,9.661-9.169,16.66v29.113
			c0,7,3.667,13.146,9.169,16.66v68.298H30.353H15.208z M88.985,404.371H37.957v-13.406h25.514h25.514V404.371z M96.589,375.756
			H71.075v-64.127h369.852v64.127H96.589z M472.924,404.374h-51.028v-13.406h51.028V404.374z M496.791,375.755h-40.658v-69.543
			c4.517-3.627,7.42-9.184,7.42-15.414v-29.113c0-6.23-2.904-11.787-7.42-15.414v-54.048c0-2.771,2.342-5.113,5.113-5.113h30.432
			c2.772,0,5.113,2.342,5.113,5.113V375.755z"/>
	</g>
</g>
<g>
	<g>
		<path d="M255.017,176.874c-4.199,0-7.604,3.404-7.604,7.604v19.999c0,4.199,3.405,7.604,7.604,7.604
			c4.199,0,7.604-3.404,7.604-7.604v-19.999C262.621,180.278,259.216,176.874,255.017,176.874z"/>
	</g>
</g>
<g>
	<g>
		<path d="M147.918,123.199h-33.776c-13.873,0-25.158,11.286-25.158,25.158v48.009c0,4.2,3.405,7.604,7.604,7.604
			c4.199,0,7.604-3.404,7.604-7.604v-48.009c0-5.487,4.464-9.95,9.95-9.95h33.776c4.199,0,7.604-3.404,7.604-7.604
			S152.118,123.199,147.918,123.199z"/>
	</g>
</g>
<g>
</g>
<g>
</g>
<g>
</g>
<g>
</g>
<g>
</g>
<g>
</g>
<g>
</g>
<g>
</g>
<g>
</g>
<g>
</g>
<g>
</g>
<g>
</g>
<g>
</g>
<g>
</g>
<g>
</g>
</svg>
